<?xml version="1.0" standalone="no"?>
<!DOCTYPE svg PUBLIC "-//W3C//DTD SVG 20010904//EN"
 "http://www.w3.org/TR/2001/REC-SVG-20010904/DTD/svg10.dtd">
<svg version="1.0" xmlns="http://www.w3.org/2000/svg"
 width="180.000000pt" height="180.000000pt" viewBox="0 0 180.000000 180.000000"
 preserveAspectRatio="xMidYMid meet">
<metadata>
Created by potrace 1.14, written by Peter Selinger 2001-2017
</metadata>
<g transform="translate(0.000000,180.000000) scale(0.100000,-0.100000)"
fill="#000000" stroke="none">
<path d="M1250 1788 c-39 -33 -3 -66 81 -74 62 -6 69 -9 69 -34 0 -31 -67 -79
-206 -146 -151 -72 -167 -89 -138 -147 32 -63 76 -95 138 -101 107 -11 102
-57 -14 -123 -74 -43 -110 -73 -110 -92 0 -10 18 -46 40 -79 54 -81 87 -94
219 -87 54 3 113 8 132 10 157 22 189 17 189 -31 0 -50 -162 -132 -474 -241
-370 -128 -448 -197 -391 -341 20 -48 28 -51 54 -19 10 12 30 36 44 52 14 17
27 28 30 25 2 -3 -6 -48 -19 -100 -13 -52 -25 -132 -28 -177 l-4 -83 100 0
100 0 -8 28 c-25 89 -6 238 41 317 59 101 120 144 290 205 212 77 320 140 368
214 48 72 18 219 -52 260 -27 16 -56 20 -160 22 -170 5 -213 11 -209 31 2 9
30 37 63 63 88 68 109 126 73 200 -22 44 -15 42 -160 44 -53 1 -100 5 -105 9
-8 9 24 37 67 59 149 75 204 159 161 247 -34 71 -141 123 -181 89z"/>
<path d="M979 1681 c-199 -81 -429 -223 -429 -266 0 -6 22 -33 50 -58 28 -25
50 -50 50 -54 -1 -17 -28 -41 -90 -78 -136 -81 -160 -98 -190 -131 -37 -42
-38 -76 -5 -120 14 -18 25 -40 25 -48 0 -24 -94 -114 -200 -193 -173 -129
-189 -154 -147 -225 30 -51 73 -93 108 -107 65 -24 192 10 379 104 122 61 174
107 165 144 -13 53 -46 55 -150 13 -281 -113 -285 -114 -285 -88 0 28 90 88
285 191 277 146 326 243 150 300 -38 12 -70 26 -72 32 -2 5 57 39 130 76 164
82 188 102 178 149 -16 70 -57 123 -102 133 -50 11 -35 32 79 106 140 92 191
132 192 152 0 13 -24 7 -121 -32z"/>
</g>
</svg>
