<svg width="70" height="70" viewBox="0 0 70 70" fill="none" xmlns="http://www.w3.org/2000/svg">
<rect width="70" height="70" rx="20" fill="white"/>
<path fill-rule="evenodd" clip-rule="evenodd" d="M23.4361 17.0436C21.8156 17.2983 20.4045 18.0018 19.2532 19.1287C18.345 20.0178 17.797 20.8732 17.3895 22.0381C17.078 22.928 16.9951 23.4677 17.0002 24.5709C17.0075 26.1422 17.328 27.2043 18.255 28.7287C18.5472 29.2092 19.8235 31.3044 21.0912 33.3846C22.359 35.4648 23.3962 37.187 23.3962 37.2115C23.3962 37.2361 23.2748 37.3601 23.1265 37.4871C22.4736 38.046 22.2695 39.1159 22.663 39.9174C23.374 41.3651 25.438 41.4456 26.2371 40.0567L26.4425 39.6998L29.3518 39.7168C32.1465 39.7331 32.2734 39.7394 32.5727 39.8779C33.0281 40.0886 33.3598 40.4102 33.5762 40.8508C33.7343 41.1729 33.7669 41.3281 33.7657 41.7532C33.7634 42.5986 33.3833 43.2216 32.6501 43.5816L32.2611 43.7726L27.5377 43.8068C22.8735 43.8407 22.8093 43.843 22.414 43.9923C20.7737 44.6118 19.8388 46.2632 20.186 47.9279C20.4535 49.2108 21.5519 50.3092 22.8348 50.5767C23.0734 50.6265 24.4507 50.6524 26.86 50.6524C28.4791 50.6524 30.9292 50.6527 33.2756 50.6276C33.3968 50.6264 33.5176 50.625 33.6381 50.6236C34.5498 50.6127 35.4383 50.5978 36.2479 50.5772C38.3438 50.524 39.9106 50.4331 39.9814 50.2778C40.0263 50.1791 40.0632 50.0366 40.0632 49.9612C40.0632 49.7687 39.8861 49.448 39.7406 49.3771C39.7165 49.3654 38.3256 49.3525 36.4526 49.3398C35.5911 49.334 34.6276 49.3283 33.6483 49.3227C33.5202 49.322 33.3919 49.3213 33.2635 49.3206C30.5361 49.3053 27.7731 49.2919 26.819 49.2833L23.0197 49.249L22.6307 49.058C21.8964 48.6974 21.5165 48.074 21.5165 47.2296C21.5165 46.3852 21.8964 45.7618 22.6307 45.4012L23.0197 45.2102L27.7431 45.176C32.4073 45.1421 32.4715 45.1398 32.8668 44.9905C34.5071 44.371 35.442 42.7196 35.0949 41.0549C34.8273 39.772 33.7289 38.6736 32.446 38.4061C32.2152 38.3579 31.0574 38.3304 29.2627 38.3304H26.4422L26.276 38.0172C26.1847 37.845 25.9922 37.6033 25.8483 37.4801C25.7045 37.357 25.5868 37.2361 25.5868 37.2115C25.5868 37.187 26.624 35.4648 27.8917 33.3846C29.1594 31.3044 30.4357 29.2092 30.728 28.7287C31.0202 28.2481 31.3544 27.6084 31.4706 27.3069C32.5717 24.4519 31.9671 21.4244 29.8652 19.2667C28.7818 18.1545 27.5308 17.4582 26.0328 17.1335C25.4488 17.0069 23.9906 16.9564 23.4361 17.0436ZM26.0317 18.5434C28.1759 19.1014 29.8659 20.789 30.4569 22.9622C30.5778 23.4068 30.6058 23.6966 30.6058 24.5025C30.6058 25.6037 30.4859 26.208 30.1064 27.019C29.8999 27.4604 24.5527 36.2761 24.4915 36.2762C24.43 36.2763 19.0854 27.4653 18.8778 27.0218C18.497 26.208 18.3771 25.6047 18.3771 24.5025C18.3771 23.6966 18.4051 23.4068 18.526 22.9622C19.16 20.6309 21.0311 18.891 23.3848 18.444C24.0918 18.3098 25.3095 18.3555 26.0317 18.5434ZM23.6938 21.1769C22.1933 21.5409 21.0687 22.9655 21.0687 24.5025C21.0687 26.35 22.6439 27.9252 24.4915 27.9252C26.339 27.9252 27.9142 26.35 27.9142 24.5025C27.9142 22.6275 26.3164 21.0575 24.4368 21.0855C24.2221 21.0887 23.8878 21.1298 23.6938 21.1769ZM25.4113 22.6833C26.1273 23.0336 26.5081 23.6652 26.5081 24.5025C26.5081 25.0856 26.3659 25.4757 26.0027 25.8894C25.4457 26.5237 24.3791 26.7188 23.5891 26.3309C22.492 25.7922 22.117 24.4295 22.7787 23.3862C23.3249 22.525 24.4654 22.2205 25.4113 22.6833ZM43.425 28.4072C41.8046 28.6619 40.3934 29.3653 39.2421 30.4923C38.3339 31.3814 37.786 32.2368 37.3784 33.4016C37.0623 34.3051 36.9837 34.8277 36.9924 35.9687C36.9991 36.8326 37.0278 37.0995 37.1737 37.6509C37.4932 38.859 37.6948 39.2226 40.3928 43.4562C41.8233 45.701 43.0854 47.6856 43.1976 47.8664L43.4013 48.1952L43.1316 48.4261C42.9833 48.553 42.7872 48.7978 42.6958 48.9701L42.5296 49.2833H39.4694C37.7038 49.2833 36.8721 49.2847 36.4526 49.3398C36.0911 49.3873 36.0357 49.4747 35.9526 49.6355C35.7693 49.9899 35.8964 50.4187 36.2296 50.5706C36.2346 50.5728 36.2407 50.575 36.2479 50.5772C36.4296 50.6317 37.3317 50.653 39.4693 50.6546L42.5294 50.657L42.7348 51.0117C43.3725 52.1133 44.8876 52.3393 45.8674 51.479C46.5028 50.9211 46.6968 49.8556 46.3074 49.0626C46.2016 48.847 45.99 48.5637 45.8373 48.433L45.5595 48.1952L45.7633 47.8664C45.8754 47.6856 47.1375 45.701 48.568 43.4562C50.2032 40.8902 51.2515 39.1764 51.3914 38.8406C52.5852 35.9727 51.9968 32.8296 49.8541 30.6302C48.7707 29.518 47.5197 28.8217 46.0217 28.497C45.4377 28.3705 43.9795 28.32 43.425 28.4072ZM46.0206 29.907C48.1648 30.4649 49.8548 32.1525 50.4459 34.3258C50.5668 34.7704 50.5948 35.0602 50.5948 35.866C50.5948 37.0114 50.4717 37.5939 50.0416 38.483C49.8007 38.9812 44.5539 47.2922 44.4804 47.292C44.4065 47.2919 39.1595 38.9813 38.9192 38.4838C38.489 37.593 38.3661 37.0112 38.3661 35.866C38.3661 35.0602 38.3941 34.7704 38.5149 34.3258C39.149 31.9945 41.02 30.2546 43.3738 29.8076C44.0807 29.6734 45.2984 29.7191 46.0206 29.907ZM43.6828 32.5405C42.1822 32.9045 41.0576 34.3291 41.0576 35.866C41.0576 37.7136 42.6329 39.2888 44.4804 39.2888C46.3279 39.2888 47.9032 37.7136 47.9032 35.866C47.9032 33.9911 46.3054 32.421 44.4257 32.4491C44.211 32.4523 43.8768 32.4934 43.6828 32.5405ZM45.4002 34.0468C46.1162 34.3972 46.497 35.0288 46.497 35.866C46.497 36.4492 46.3548 36.8393 45.9916 37.253C45.4347 37.8873 44.3681 38.0824 43.578 37.6945C42.481 37.1557 42.106 35.7931 42.7677 34.7497C43.3138 33.8886 44.4543 33.5841 45.4002 34.0468ZM24.8238 38.428C25.2858 38.6669 25.272 39.4033 24.8014 39.6177C24.4502 39.7778 24.0674 39.6624 23.9045 39.3473C23.5831 38.726 24.2025 38.1066 24.8238 38.428ZM33.1244 49.3788C32.5879 49.6762 32.7393 50.4767 33.2756 50.6276C33.3326 50.6437 33.3939 50.6524 33.4591 50.6524C33.5196 50.6524 33.5799 50.6422 33.6381 50.6236C33.9135 50.5354 34.1437 50.258 34.1437 49.9745C34.1437 49.6544 33.9234 49.405 33.6483 49.3227C33.526 49.2862 33.3929 49.2826 33.2635 49.3206C33.2164 49.3344 33.1698 49.3536 33.1244 49.3788ZM44.8128 49.3808C45.2748 49.6197 45.2609 50.3562 44.7904 50.5706C44.1687 50.8538 43.5642 50.2234 43.8914 49.6331C44.0709 49.3091 44.4653 49.2012 44.8128 49.3808Z" fill="url(#paint0_linear_1_53)"/>
<path d="M36.2479 50.5772C38.3438 50.524 39.9106 50.4331 39.9814 50.2778C40.0263 50.1791 40.0632 50.0366 40.0632 49.9612C40.0632 49.7687 39.8861 49.448 39.7406 49.3771C39.7165 49.3654 38.3256 49.3525 36.4526 49.3398C36.0911 49.3873 36.0357 49.4747 35.9526 49.6355C35.7693 49.9899 35.8964 50.4187 36.2296 50.5706C36.2346 50.5728 36.2407 50.575 36.2479 50.5772Z" fill="url(#paint1_linear_1_53)"/>
<path d="M33.1244 49.3788C32.5879 49.6762 32.7393 50.4767 33.2756 50.6276C33.3968 50.6264 33.5176 50.625 33.6381 50.6236C33.9135 50.5354 34.1437 50.258 34.1437 49.9745C34.1437 49.6544 33.9234 49.405 33.6483 49.3227C33.5202 49.322 33.3919 49.3213 33.2635 49.3206C33.2164 49.3344 33.1698 49.3536 33.1244 49.3788Z" fill="url(#paint2_linear_1_53)"/>
<defs>
<linearGradient id="paint0_linear_1_53" x1="34.5" y1="17" x2="34.5" y2="52.0039" gradientUnits="userSpaceOnUse">
<stop stop-color="#00C489"/>
<stop offset="1" stop-color="#3A9271"/>
</linearGradient>
<linearGradient id="paint1_linear_1_53" x1="34.5" y1="17" x2="34.5" y2="52.0039" gradientUnits="userSpaceOnUse">
<stop stop-color="#00C489"/>
<stop offset="1" stop-color="#3A9271"/>
</linearGradient>
<linearGradient id="paint2_linear_1_53" x1="34.5" y1="17" x2="34.5" y2="52.0039" gradientUnits="userSpaceOnUse">
<stop stop-color="#00C489"/>
<stop offset="1" stop-color="#3A9271"/>
</linearGradient>
</defs>
</svg>
