<svg width="70" height="70" viewBox="0 0 70 70" fill="none" xmlns="http://www.w3.org/2000/svg">
<rect width="70" height="70" rx="20" fill="white"/>
<path fill-rule="evenodd" clip-rule="evenodd" d="M19.3258 22.0676C18.2288 22.2818 17.2852 23.2503 17.0705 24.3823C16.9763 24.8794 16.9766 39.5457 17.0709 40.0467C17.2936 41.2292 18.3167 42.1888 19.5441 42.3663C19.7842 42.401 23.5831 42.4293 28.1176 42.43L36.26 42.4314L36.4138 42.8586C37.8874 46.9535 42.2861 49.1582 46.3955 47.8619C47.0632 47.6513 47.9453 47.2257 48.1233 47.0283C48.5466 46.5592 48.2481 45.8492 47.6275 45.8493C47.4949 45.8493 47.1865 45.9449 46.9421 46.0618C45.723 46.6449 44.5895 46.8533 43.3192 46.7281C40.5547 46.4557 38.303 44.4932 37.605 41.7478C37.5017 41.3416 37.4759 41.0081 37.4809 40.1414C37.4865 39.1588 37.506 38.9856 37.6723 38.4367C38.3404 36.2317 39.9898 34.5812 42.1913 33.9147C42.7448 33.7471 42.9161 33.7277 43.9002 33.7221C44.7669 33.7171 45.1004 33.7429 45.5066 33.8462C47.7938 34.4278 49.5378 36.0658 50.2351 38.2874C50.4927 39.1079 50.6291 40.6216 50.5001 41.2283C50.3845 41.7721 49.9359 42.2423 49.4292 42.351C48.7058 42.5062 48.0705 42.1863 47.7557 41.5086C47.643 41.2661 47.6285 41.0471 47.6272 39.5741C47.6255 37.747 47.5987 37.6053 47.2178 37.4083C46.9666 37.2784 46.8234 37.2782 46.5758 37.4074C46.3905 37.504 46.3674 37.4991 46.1315 37.3135C45.0917 36.4955 43.5332 36.369 42.2855 37.0012C41.8853 37.204 41.2076 37.8247 40.9319 38.2409C39.641 40.1898 40.5839 42.8913 42.8269 43.6701C43.9946 44.0755 45.4191 43.7886 46.3573 42.959L46.6953 42.6601L47.0433 43.0072C48.6792 44.6386 51.4995 43.7559 51.9316 41.4771C51.9696 41.2774 52.0003 40.7875 52 40.3885C51.9982 37.7363 50.8374 35.375 48.7659 33.8087C47.7802 33.0635 46.2414 32.4307 45.0452 32.2789L44.6863 32.2333V28.3199C44.6863 24.6556 44.678 24.3825 44.5566 24.0296C44.2147 23.0358 43.4449 22.3226 42.4647 22.0913C42.1192 22.0098 40.2895 21.9956 30.844 22.001C24.6781 22.0046 19.4949 22.0346 19.3258 22.0676ZM41.8039 23.489C41.7654 23.5921 31.4945 32.0014 31.2998 32.0893C31.0567 32.1991 30.6112 32.1982 30.3992 32.0876C30.2222 31.9951 20.4072 23.9725 20.0448 23.624L19.841 23.4281H30.8339C37.2465 23.4281 41.8172 23.4535 41.8039 23.489ZM24.0714 28.8283C27.0289 31.2533 29.5798 33.3041 29.74 33.3857C30.376 33.7096 31.2419 33.7242 31.9192 33.4225C32.0797 33.351 34.6517 31.2883 37.6348 28.8388C40.6178 26.3892 43.0827 24.3851 43.1125 24.3851C43.2333 24.3851 43.249 24.8492 43.2499 28.46L43.2508 32.2274L42.721 32.3123C39.9295 32.7595 37.5026 34.7328 36.4843 37.3831C36.133 38.2976 35.8934 39.8247 35.9828 40.5796L36.0241 40.9292L27.715 40.9113L19.4059 40.8933L19.1095 40.6853C18.9464 40.5708 18.7362 40.3401 18.6422 40.1726L18.4713 39.868V32.2462C18.4713 28.0541 18.4944 24.5679 18.5226 24.499C18.5508 24.4301 18.601 24.384 18.6341 24.3965C18.6671 24.409 21.114 26.4033 24.0714 28.8283ZM44.9047 38.2498C45.2825 38.4347 45.7401 38.8724 45.9161 39.2172C46.2105 39.7945 46.2129 40.6205 45.9217 41.1913C45.3767 42.2596 44.0375 42.6987 42.976 42.1573C42.632 41.9817 42.1939 41.5244 42.0076 41.1459C41.7791 40.6821 41.7813 39.7304 42.0117 39.287C42.2983 38.7356 42.802 38.3073 43.3875 38.1171C43.7216 38.0086 44.5619 38.0822 44.9047 38.2498Z" fill="url(#paint0_linear_1_59)"/>
<defs>
<linearGradient id="paint0_linear_1_59" x1="34.5" y1="22" x2="34.5" y2="48.2328" gradientUnits="userSpaceOnUse">
<stop stop-color="#00C489"/>
<stop offset="1" stop-color="#3A9271"/>
</linearGradient>
</defs>
</svg>
