<svg width="70" height="70" viewBox="0 0 70 70" fill="none" xmlns="http://www.w3.org/2000/svg">
<rect width="70" height="70" rx="20" fill="white"/>
<path fill-rule="evenodd" clip-rule="evenodd" d="M24.0599 18.0659C23.6527 18.2006 23.5627 18.2628 22.5239 19.1277C20.3612 20.9284 19.7973 21.5387 19.4379 22.4671C19.082 23.3867 18.9051 24.8967 19.0516 25.7639C19.3424 27.4849 20.8529 30.8463 22.6881 33.8562C25.513 38.4894 28.5078 41.8576 32.4201 44.8013C35.5338 47.1442 39.2958 49.2833 42.2502 50.3909C43.7114 50.9387 43.993 50.9995 45.0677 51C46.9934 51.0008 48.1326 50.5656 49.243 49.4051C50.062 48.5491 51.7202 46.5253 51.8658 46.2039C51.9663 45.982 52.0002 45.7764 52 45.3904C51.9996 44.7762 51.8336 44.3922 51.3819 43.961C51.228 43.8142 49.6646 42.5827 47.9075 41.2244C44.4285 38.5351 44.1766 38.3725 43.2911 38.2453C42.514 38.1336 41.9827 38.2445 41.1308 38.6957C39.4383 39.5921 39.4789 39.5756 38.9777 39.5735C38.3964 39.5711 38.0834 39.4359 37.3717 38.8796C35.2519 37.2229 33.1633 35.1579 31.385 32.9605C30.6294 32.0269 30.4553 31.669 30.454 31.0466C30.4529 30.5455 30.4371 30.5842 31.3323 28.8926C31.7833 28.0402 31.894 27.5086 31.7825 26.7312C31.6553 25.8453 31.4928 25.5933 28.8048 22.1126C27.4471 20.3547 26.2162 18.7905 26.0694 18.6365C25.9226 18.4826 25.6617 18.2846 25.4896 18.1964C25.1077 18.0007 24.4408 17.9399 24.0599 18.0659ZM25.0398 19.4902C25.2965 19.7063 30.0915 25.92 30.2875 26.2906C30.4779 26.6508 30.5412 27.3824 30.4158 27.7734C30.3721 27.9095 30.1362 28.3706 29.8916 28.7982C29.2961 29.8394 29.1817 30.1549 29.1436 30.862C29.0866 31.9223 29.3179 32.4859 30.3295 33.7509C32.0506 35.9032 34.1093 37.9627 36.2445 39.6684C37.5519 40.7127 38.1209 40.9487 39.1852 40.888C39.8551 40.8498 40.2227 40.7135 41.2636 40.1174C41.6697 39.8847 42.1134 39.6581 42.2494 39.6138C42.6389 39.4869 43.3699 39.5496 43.7315 39.741C44.1019 39.937 50.3127 44.7343 50.5287 44.9912C50.7301 45.2307 50.7346 45.5959 50.5394 45.8498C50.1345 46.3763 48.7626 47.9834 48.3081 48.4639C47.6165 49.1948 47.1676 49.4325 46.1326 49.6155C45.5184 49.7241 44.4433 49.7099 43.9677 49.587C42.9263 49.3178 40.7278 48.3607 38.9798 47.4155C33.8591 44.6468 29.9775 41.4969 26.8863 37.6017C24.1813 34.1931 21.3783 29.2016 20.5111 26.2487C20.3418 25.6727 20.3339 25.5887 20.367 24.7313C20.4262 23.1986 20.6795 22.5515 21.5356 21.7457C22.0065 21.3026 23.7384 19.8188 24.1816 19.4789C24.4355 19.2841 24.8007 19.2889 25.0398 19.4902ZM41.7066 19.5248C41.5678 19.6638 41.518 19.7751 41.518 19.9468C41.518 20.307 41.6684 20.4684 42.2166 20.6961C43.9895 21.4326 45.417 22.3906 46.6504 23.6711C47.8141 24.8794 48.6377 26.1541 49.3257 27.8118C49.5578 28.3711 49.6971 28.5051 50.0467 28.5051C50.4027 28.5051 50.6827 28.2476 50.6827 27.9199C50.6827 27.285 49.65 25.2751 48.6278 23.9206C48.1574 23.2971 46.7236 21.8626 46.1003 21.3919C45.1118 20.6452 43.8866 19.9453 42.8392 19.5291C42.2097 19.2789 41.9534 19.2779 41.7066 19.5248ZM39.878 24.5067C39.6798 24.7423 39.6561 25.1085 39.8252 25.3174C39.8866 25.3932 40.2729 25.6178 40.6837 25.8166C42.3268 26.6119 43.412 27.7039 44.2305 29.3859C44.4431 29.8226 44.673 30.21 44.7413 30.2465C44.9708 30.3694 45.3029 30.3241 45.5215 30.1401C45.7126 29.9792 45.7252 29.9438 45.6988 29.6396C45.6811 29.4346 45.5701 29.103 45.402 28.7524C44.4968 26.8651 42.8268 25.2547 40.9881 24.4961C40.3777 24.2443 40.0964 24.247 39.878 24.5067ZM38.0708 29.4787C37.8925 29.6906 37.8492 30.0258 37.9707 30.2531C38.0075 30.322 38.2036 30.4628 38.4064 30.566C38.8595 30.7968 39.2209 31.162 39.481 31.652C39.7024 32.069 39.9817 32.2265 40.2917 32.1091C41.0071 31.838 40.8632 31.0065 39.941 30.0819C39.4317 29.5715 38.9059 29.28 38.4944 29.28C38.2873 29.28 38.2058 29.3182 38.0708 29.4787Z" fill="url(#paint0_linear_1_65)"/>
<defs>
<linearGradient id="paint0_linear_1_65" x1="35.5" y1="18" x2="35.5" y2="51" gradientUnits="userSpaceOnUse">
<stop stop-color="#00C489"/>
<stop offset="1" stop-color="#3A9271"/>
</linearGradient>
</defs>
</svg>
