<svg width="15" height="15" viewBox="0 0 15 15" fill="none" xmlns="http://www.w3.org/2000/svg">
<circle cx="7.5" cy="7.5" r="7.5" fill="#de1d25"/>
<path d="M8.27567 11H6.72467V5.511H8.27567V11ZM6.57067 4.059C6.57067 3.795 6.65867 3.575 6.83467 3.399C7.01801 3.21567 7.23801 3.124 7.49467 3.124C7.75134 3.124 7.96767 3.21567 8.14367 3.399C8.32701 3.575 8.41867 3.795 8.41867 4.059C8.41867 4.31567 8.32701 4.53567 8.14367 4.719C7.96767 4.895 7.75134 4.983 7.49467 4.983C7.23801 4.983 7.01801 4.895 6.83467 4.719C6.65867 4.53567 6.57067 4.31567 6.57067 4.059Z" fill="white"/>
</svg>
