<?xml version="1.0" encoding="UTF-8"?> <svg xmlns="http://www.w3.org/2000/svg" width="401" height="402" viewBox="0 0 401 402" fill="none"> <g filter="url(#filter0_dd_3_510)"> <circle cx="200.5" cy="197.5" r="188" stroke="#2A8CFF" stroke-width="3"></circle> </g> <g filter="url(#filter1_dd_3_510)"> <circle cx="197.585" cy="194.586" r="122.447" fill="#2A8CFF"></circle> <circle cx="197.585" cy="194.586" r="121.747" stroke="#6F98FF" stroke-width="1.40001"></circle> </g> <path d="M117.241 115.241C72.9195 159.563 72.9195 231.437 117.241 275.759C161.563 320.08 233.437 320.08 277.759 275.759C322.08 231.437 322.08 159.563 277.759 115.241C233.437 70.9195 161.563 70.9195 117.241 115.241V115.241ZM202.052 129.617C211.634 129.617 219.302 137.523 219.302 147.106C219.302 156.688 211.396 164.594 202.052 164.594C192.47 164.594 184.563 156.688 184.563 146.865C184.563 137.284 192.468 129.617 202.052 129.617V129.617ZM226.729 246.771C226.249 248.208 225.291 249.886 224.332 250.843C218.103 257.312 210.437 261.144 201.332 261.144C197.02 261.144 192.946 261.144 188.634 260.426C181.687 259.468 172.822 250.843 174.02 241.738C174.977 235.51 175.937 229.28 176.894 223.051C178.811 212.271 180.728 201.249 182.645 190.469C182.645 189.75 182.884 189.032 182.884 188.313C182.884 183.761 181.446 182.084 176.894 181.605C174.977 181.366 173.06 181.125 171.144 180.647C168.988 179.929 167.79 178.012 168.029 176.336C168.268 174.419 169.466 173.221 171.862 172.743C173.061 172.504 174.498 172.504 175.935 172.504H191.987H208.998C213.07 172.504 215.467 174.421 215.467 178.493C215.467 181.847 214.987 185.201 214.268 188.555C212.113 201.014 209.716 213.232 207.56 225.69C206.842 229.763 205.882 233.836 205.404 237.908C205.165 239.825 205.404 241.981 205.884 243.898C206.603 246.533 208.519 247.971 211.155 247.732C213.311 247.493 215.466 246.774 217.624 245.815C219.302 245.096 220.739 243.898 222.415 243.418C225.291 242.459 227.447 244.135 226.728 246.771L226.729 246.771Z" fill="white"></path> <defs> <filter id="filter0_dd_3_510" x="0.402174" y="0.934783" width="400.196" height="400.196" filterUnits="userSpaceOnUse" color-interpolation-filters="sRGB"> <feFlood flood-opacity="0" result="BackgroundImageFix"></feFlood> <feColorMatrix in="SourceAlpha" type="matrix" values="0 0 0 0 0 0 0 0 0 0 0 0 0 0 0 0 0 0 127 0" result="hardAlpha"></feColorMatrix> <feOffset dy="3.53261"></feOffset> <feGaussianBlur stdDeviation="5.29891"></feGaussianBlur> <feColorMatrix type="matrix" values="0 0 0 0 0.207843 0 0 0 0 0.427451 0 0 0 0 1 0 0 0 0.2 0"></feColorMatrix> <feBlend mode="normal" in2="BackgroundImageFix" result="effect1_dropShadow_3_510"></feBlend> <feColorMatrix in="SourceAlpha" type="matrix" values="0 0 0 0 0 0 0 0 0 0 0 0 0 0 0 0 0 0 127 0" result="hardAlpha"></feColorMatrix> <feOffset dy="3.53261"></feOffset> <feGaussianBlur stdDeviation="1.7663"></feGaussianBlur> <feColorMatrix type="matrix" values="0 0 0 0 0.227451 0 0 0 0 0.2 0 0 0 0 0.054902 0 0 0 0.05 0"></feColorMatrix> <feBlend mode="normal" in2="effect1_dropShadow_3_510" result="effect2_dropShadow_3_510"></feBlend> <feBlend mode="normal" in="SourceGraphic" in2="effect2_dropShadow_3_510" result="shape"></feBlend> </filter> <filter id="filter1_dd_3_510" x="64.6384" y="65.1386" width="265.894" height="265.894" filterUnits="userSpaceOnUse" color-interpolation-filters="sRGB"> <feFlood flood-opacity="0" result="BackgroundImageFix"></feFlood> <feColorMatrix in="SourceAlpha" type="matrix" values="0 0 0 0 0 0 0 0 0 0 0 0 0 0 0 0 0 0 127 0" result="hardAlpha"></feColorMatrix> <feOffset dy="3.50002"></feOffset> <feGaussianBlur stdDeviation="5.25004"></feGaussianBlur> <feColorMatrix type="matrix" values="0 0 0 0 0.207843 0 0 0 0 0.427451 0 0 0 0 1 0 0 0 0.2 0"></feColorMatrix> <feBlend mode="normal" in2="BackgroundImageFix" result="effect1_dropShadow_3_510"></feBlend> <feColorMatrix in="SourceAlpha" type="matrix" values="0 0 0 0 0 0 0 0 0 0 0 0 0 0 0 0 0 0 127 0" result="hardAlpha"></feColorMatrix> <feOffset dy="3.50002"></feOffset> <feGaussianBlur stdDeviation="1.75001"></feGaussianBlur> <feColorMatrix type="matrix" values="0 0 0 0 0.227451 0 0 0 0 0.2 0 0 0 0 0.054902 0 0 0 0.05 0"></feColorMatrix> <feBlend mode="normal" in2="effect1_dropShadow_3_510" result="effect2_dropShadow_3_510"></feBlend> <feBlend mode="normal" in="SourceGraphic" in2="effect2_dropShadow_3_510" result="shape"></feBlend> </filter> </defs> </svg> 