<svg width="244" height="111" viewBox="0 0 244 111" fill="none" xmlns="http://www.w3.org/2000/svg">
<path fill-rule="evenodd" clip-rule="evenodd" d="M56.1149 1.9178C56.1149 3.00862 57.8949 3.90111 60.0704 3.90111C66.8896 3.90111 64.3977 7.84988 55.039 11.872C47.0074 15.325 46.2796 16.16 48.1862 19.7339C49.361 21.9354 52.0705 23.7342 54.2064 23.7342C59.5661 23.7342 59.0736 26.5049 53.1483 29.6842C47.4584 32.7385 47.3259 33.3136 51.1508 38.379C53.6072 41.6336 55.577 41.9371 66.415 40.7372L73.1141 39.9951C75.0388 39.7819 76.1668 42.102 74.8105 43.4841C72.5835 45.755 63.3119 50.0488 54.2064 53.0278C37.2038 58.589 32.7163 62.1946 35.0876 68.3945C36.3771 71.7602 36.5927 71.7483 39.2785 68.1664C41.808 64.7967 41.893 65.2093 40.0715 72.012C38.9482 76.2028 38.6159 83.1186 39.3358 87.3827C40.0883 91.8511 43.9697 95.1147 48.5009 95.0892L119.082 94.6912C193.281 94.2727 194.903 94.1894 149.069 93.1502C122.419 92.5453 102.438 91.8531 104.668 91.6091C106.897 91.3652 109.791 90.0959 111.096 88.7869C114.84 85.0325 113.962 75.6435 109.615 72.9204C106.878 71.2048 106.34 69.8046 107.762 68.0871C111.434 63.6504 104.467 53.9103 95.7488 51.2904C89.0601 49.2813 87.1852 49.438 82.6918 52.3891C78.8589 54.9099 78.0362 56.4272 79.6362 58.0317C81.2362 59.6362 82.4643 59.5866 84.1988 57.8472C85.5041 56.5382 88.7298 55.4672 91.3681 55.4672C95.7092 55.4672 96.0435 56.0702 94.8984 61.8138C94.2022 65.3045 92.533 68.8744 91.1901 69.7471C89.3765 70.9252 89.333 71.7165 91.02 72.8212C92.27 73.6403 93.6049 76.4705 93.9866 79.1123C95.0506 86.4684 99.6252 86.7282 99.6252 79.4316C99.6252 74.7728 100.509 73.3171 103.339 73.3171C105.38 73.3171 108.244 74.7589 109.702 76.5201C111.978 79.269 111.672 80.2745 107.546 83.6243C104.488 86.1074 100.735 87.232 97.2281 86.7163C91.0932 85.8119 89.3172 90.2248 95.1752 91.8154C97.0778 92.3311 87.0665 92.6206 72.9257 92.456L57.0994 92.2729C51.6221 92.2095 47.2151 87.7513 47.2151 82.2736V77.4483V70.0001C47.2151 65.6685 50.0039 61.8294 54.1232 60.4901L60.7943 58.3212C77.9749 52.7342 83.38 47.7918 80.6765 40.1402C78.9242 35.1839 77.8147 34.6425 69.3994 34.6425C59.0519 34.6425 58.1283 33.8372 64.1505 30.067C66.7097 28.4644 68.0011 25.8822 67.6115 23.1432C67.1072 19.5911 65.792 18.8315 60.5648 19.0675C52.6143 19.4305 52.5313 18.7184 60.0704 14.8093C66.237 11.6122 67.7183 6.41397 63.6303 2.31446C60.7507 -0.573244 56.1149 -0.819175 56.1149 1.9178ZM39.3042 7.69519C34.9531 9.73403 29.6132 12.8379 27.4377 14.5931C23.6425 17.6554 23.6266 17.8973 27.06 20.5669C30.3865 23.1571 30.078 23.6648 22.6101 27.8734C14.4044 32.4985 12.9607 35.1978 16.6907 38.9383C18.1839 40.4357 15.8502 43.2262 8.69274 48.4939C-0.798421 55.4791 -1.24341 56.1912 1.38105 60.1617C5.38794 66.2247 9.21091 66.3239 21.4867 60.6893C29.2493 57.1253 32.0261 54.8604 31.2172 52.7481C30.2422 50.2015 28.8637 50.3205 21.1822 53.6228C10.9592 58.0158 9.92487 58.2122 11.6435 55.4236C12.3298 54.307 18.2254 50.6954 24.7421 47.3971C37.3877 40.995 39.585 35.8245 30.5665 33.6885C26.1522 32.6453 26.4073 32.2883 34.0374 28.8393C38.5665 26.7905 42.2708 24.4304 42.2708 23.5954C42.2708 19.5832 39.5454 15.795 36.6204 15.7395C34.7554 15.7038 36.5373 13.7245 40.8053 11.0926C53.8623 3.04233 53.0692 1.24545 39.3042 7.69519ZM103.272 64.5131C102.196 70.0743 97.6474 70.3778 97.6474 64.888C97.6474 62.2522 98.2546 59.4854 98.9982 58.7397C101.099 56.6334 104.03 60.5941 103.272 64.5131ZM143.135 79.15C143.135 89.0983 136.5 88.6858 132.535 78.4895C132.05 77.248 130.243 78.2456 128.372 80.7882C124.687 85.798 121.38 85.0226 121.38 79.15C121.38 77.0318 120.49 75.3004 119.403 75.3004C117.203 75.3004 116.774 81.2106 118.625 86.046C119.962 89.5406 126.398 90.2922 128.316 87.1784C129.103 85.9012 131.014 86.2026 133.589 88.0114C137.772 90.9487 149.937 90.2803 154.276 86.875C155.698 85.7584 156.942 86.2225 157.676 88.1403C159.157 92.0118 161.817 91.982 165.739 88.0511C167.448 86.3355 168.846 85.8298 168.846 86.9246C168.846 89.9075 176.846 91.8709 179.237 89.4731C180.695 88.0114 182.486 88.0134 185.212 89.4751C187.354 90.6254 191.446 91.0955 194.303 90.5203C199.465 89.4811 199.497 89.5485 198.823 100.237C198.263 109.134 198.704 111 201.364 111C204.073 111 204.378 109.463 203.292 101.248C202.598 96.0032 206.542 91.2883 211.828 91.0465L217.562 90.7841C239.022 89.8004 242.964 91.8987 222.245 93.2771L205.434 94.3937L226.2 94.6238C239.335 94.7706 245.513 94.2291 243.011 93.1502C240.836 92.2121 240.169 91.383 241.528 91.3057C242.889 91.2303 244 89.719 244 87.9499C244 85.4172 243.411 85.2229 241.235 87.0317C239.056 88.8464 237.695 88.3526 234.807 84.7033C232.792 82.1567 230.112 79.4415 228.851 78.672C225.285 76.4943 220.267 79.2848 220.267 83.4458C220.267 85.5105 218.932 87.2002 217.301 87.2002C215.669 87.2002 214.334 85.5541 214.334 83.541C214.334 78.3983 207.792 72.7379 205.037 75.5007C203.526 77.0159 202.531 77.008 201.585 75.4729C199.026 71.3218 196.942 73.3746 197.232 79.7628C197.492 85.5263 196.898 86.28 191.618 86.8809C185.764 87.5473 185.744 87.5196 189.418 83.4478C192.456 80.0821 192.676 78.7989 190.633 76.3297C186.644 71.5103 180.712 72.5297 180.712 78.0334C180.712 80.6256 179.433 83.8128 177.868 85.1138C175.547 87.0475 174.415 86.2959 171.692 81.0163L171.116 79.8994C169.957 77.6508 166.745 77.6417 165.573 79.8838C162.143 86.4466 158.957 86.7857 158.957 80.5899C158.957 74.0053 156.709 72.611 154.189 77.6347C150.975 84.0408 147.091 84.4811 147.091 78.44C147.091 75.6236 146.201 73.3171 145.113 73.3171C144.025 73.3171 143.135 75.941 143.135 79.15ZM188.623 79.267C188.623 80.3578 187.68 81.2503 186.529 81.2503C185.378 81.2503 184.984 80.3578 185.657 79.267C186.329 78.1762 187.271 77.2837 187.751 77.2837C188.232 77.2837 188.623 78.1762 188.623 79.267ZM209.39 81.2503C210.062 82.3411 209.223 83.2336 207.529 83.2336C205.834 83.2336 204.445 82.3411 204.445 81.2503C204.445 80.1595 205.282 79.267 206.306 79.267C207.331 79.267 208.717 80.1595 209.39 81.2503ZM228.178 85.2169C228.178 86.3078 227.288 87.2002 226.2 87.2002C225.113 87.2002 224.223 86.3078 224.223 85.2169C224.223 84.1261 225.113 83.2336 226.2 83.2336C227.288 83.2336 228.178 84.1261 228.178 85.2169ZM207.412 87.2002C208.084 88.2911 207.691 89.1836 206.54 89.1836C205.389 89.1836 204.445 88.2911 204.445 87.2002C204.445 86.1094 204.837 85.2169 205.317 85.2169C205.798 85.2169 206.739 86.1094 207.412 87.2002Z" fill="url(#paint0_linear_310_441)"/>
<defs>
<linearGradient id="paint0_linear_310_441" x1="122" y1="0" x2="122" y2="111" gradientUnits="userSpaceOnUse">
<stop stop-color="#00C489"/>
<stop offset="1" stop-color="#3A9271"/>
</linearGradient>
</defs>
</svg>
