<svg width="30" height="30" viewBox="0 0 30 30" fill="none" xmlns="http://www.w3.org/2000/svg">
<path d="M14.134 1.5C14.5189 0.833332 15.4811 0.833333 15.866 1.5L27.1244 21C27.5093 21.6667 27.0281 22.5 26.2583 22.5H3.74167C2.97187 22.5 2.49074 21.6667 2.87564 21L14.134 1.5Z" fill="#de1d25"/>
<path d="M13.9092 17.9876C13.9092 17.676 14.0144 17.4149 14.225 17.2044C14.4439 16.9939 14.705 16.8886 15.0081 16.8886C15.3113 16.8886 15.5681 16.9939 15.7787 17.2044C15.9892 17.4149 16.0944 17.676 16.0944 17.9876C16.0944 18.2907 15.9892 18.5518 15.7787 18.7707C15.5681 18.9813 15.3113 19.0865 15.0081 19.0865C14.705 19.0865 14.4439 18.9813 14.225 18.7707C14.0144 18.5518 13.9092 18.2907 13.9092 17.9876ZM15.6902 16.0044H14.3134L13.9218 10.1055H16.0944L15.6902 16.0044Z" fill="white"/>
</svg>
